<?xml version="1.0" standalone="no"?><!DOCTYPE svg PUBLIC "-//W3C//DTD SVG 1.1//EN" "http://www.w3.org/Graphics/SVG/1.1/DTD/svg11.dtd"><svg t="1562302420417" class="icon" viewBox="0 0 1024 1024" version="1.1" xmlns="http://www.w3.org/2000/svg" p-id="2676" xmlns:xlink="http://www.w3.org/1999/xlink" width="200" height="200"><defs><style type="text/css"></style></defs><path d="M112 16h736v992H112z" fill="#EDF2F9" p-id="2677"></path><path d="M488.992 592c20.4 0 39.008 8.272 39.008 32 0 23.52-34.288 39.84-34.288 39.84C459.216 692.752 464 736 464 736v16h32v-16s-3.168-37.408 24.976-55.616c0 0 39.024-20.176 39.024-56.384 0-19.136-7.152-39.52-21.312-49.264-14.176-9.744-29.456-14.624-50.864-14.624-16.304 0-32.528 3.424-43.712 10.304-17.728 10.736-26.976 27.856-28.112 53.584h32c0-23.136 22.08-32 40.992-32z m123.584 203.408a15.872 15.872 0 0 0 22.48 0l79.344-79.344c0.336-0.288 0.752-0.384 1.056-0.704a15.776 15.776 0 0 0 4.592-11.52 15.776 15.776 0 0 0-4.656-11.248c-0.208-0.208-0.48-0.288-0.704-0.464l-79.6-79.6a15.872 15.872 0 1 0-22.464 22.464l68.944 68.944-68.992 68.992a15.888 15.888 0 0 0 0 22.48zM896 128h-32V32a32 32 0 0 0-32-32H128a32 32 0 0 0-32 32v960a32 32 0 0 0 32 32h704a32 32 0 0 0 32-32V416h32a32 32 0 0 0 32-32V160a32 32 0 0 0-32-32z m-64 0H448a32 32 0 0 0-32 32v224a32 32 0 0 0 32 32h384v576H128V32h704v96zM261.552 716.032l79.376 79.376a15.84 15.84 0 0 0 22.464 0 15.84 15.84 0 0 0 0-22.464L294.4 703.952l68.944-68.944a15.872 15.872 0 1 0-22.464-22.464l-79.568 79.568c-0.224 0.208-0.528 0.288-0.736 0.496a15.888 15.888 0 0 0-4.656 11.264 15.76 15.76 0 0 0 4.608 11.504c0.304 0.288 0.704 0.384 1.024 0.656zM464 816h32v-32h-32v32z" fill="#8592A5" p-id="2678"></path><path d="M540.752 289.04V328h-27.04v-116.56h41.136c8.208 0 15.248 0.976 21.152 2.928 5.888 1.952 10.752 4.624 14.56 8.048 3.808 3.408 6.624 7.44 8.432 12.08s2.72 9.664 2.72 15.024c0 5.808-0.944 11.152-2.816 16a31.952 31.952 0 0 1-8.56 12.48 40.096 40.096 0 0 1-14.592 8.128c-5.888 1.936-12.864 2.928-20.912 2.928h-14.08z m0-20.4h14.096c7.024 0 12.096-1.68 15.184-5.04s4.64-8.048 4.64-14.08c0-2.656-0.384-5.088-1.2-7.28a14.8 14.8 0 0 0-3.632-5.648 16.704 16.704 0 0 0-6.176-3.648 27.392 27.392 0 0 0-8.832-1.264h-14.096v36.96zM717.568 328h-27.216v-49.28h-47.344v49.28h-27.216v-116.56h27.216v48.72h47.344v-48.72h27.216V328zM763.776 289.04V328h-27.024v-116.56h41.12c8.224 0 15.264 0.976 21.152 2.928s10.752 4.624 14.56 8.048c3.808 3.408 6.624 7.44 8.432 12.08s2.72 9.664 2.72 15.024c0 5.808-0.944 11.152-2.8 16a31.952 31.952 0 0 1-8.56 12.48 40.16 40.16 0 0 1-14.608 8.128c-5.872 1.936-12.864 2.928-20.912 2.928h-14.08z m0-20.4h14.096c7.024 0 12.096-1.68 15.184-5.04s4.656-8.048 4.656-14.08c0-2.656-0.4-5.088-1.216-7.28a14.624 14.624 0 0 0-3.632-5.648 16.64 16.64 0 0 0-6.16-3.648 27.488 27.488 0 0 0-8.848-1.264h-14.096v36.96z" fill="#FFFFFF" p-id="2679"></path></svg>